<?xml version="1.0" encoding="UTF-8"?>
<svg version="1.1" xmlns="http://www.w3.org/2000/svg" width="357" height="140">
<path d="M0 0 C7.15269442 -0.22849796 14.30444648 -0.38592406 21.45996094 -0.49438477 C23.89293585 -0.53960193 26.32566678 -0.60098912 28.7578125 -0.67895508 C32.25842416 -0.78834919 35.75580166 -0.83921234 39.2578125 -0.87890625 C40.34240753 -0.92535782 41.42700256 -0.97180939 42.54446411 -1.01966858 C49.94012322 -1.02459449 49.94012322 -1.02459449 52.96366882 1.89830017 C54.52149943 4.20169045 55.79092615 6.49847197 57 9 C57.78032593 10.28716919 57.78032593 10.28716919 58.57641602 11.6003418 C59.15927368 12.63928589 59.15927368 12.63928589 59.75390625 13.69921875 C60.20870361 14.50383545 60.66350098 15.30845215 61.13208008 16.13745117 C61.60411865 16.97896729 62.07615723 17.8204834 62.5625 18.6875 C66.73915278 26.06588222 70.98132635 33.39875917 75.3125 40.6875 C82.65619202 53.05909545 89.82535452 65.52987755 97 78 C99.03937573 81.54299347 101.08115692 85.08458204 103.125 88.625 C103.54990723 89.36387451 103.97481445 90.10274902 104.41259766 90.86401367 C106.85997161 95.10113389 109.40324223 99.25084492 112.07763672 103.34912109 C113 105 113 105 113 107 C105.84730558 107.22849796 98.69555352 107.38592406 91.54003906 107.49438477 C89.10706415 107.53960193 86.67433322 107.60098912 84.2421875 107.67895508 C80.74157584 107.78834919 77.24419834 107.83921234 73.7421875 107.87890625 C72.65759247 107.92535782 71.57299744 107.97180939 70.45553589 108.01966858 C63.07525471 108.02458425 63.07525471 108.02458425 60.07080078 105.16171265 C58.49720248 102.84205491 57.22719333 100.51796501 56 98 C55.34290039 96.90365234 54.68580078 95.80730469 54.00878906 94.67773438 C53.43354492 93.66001953 52.85830078 92.64230469 52.265625 91.59375 C51.61456787 90.44696777 50.96351074 89.30018555 50.29272461 88.11865234 C49.95933075 87.52799988 49.62593689 86.93734741 49.28244019 86.32879639 C47.51437109 83.19695551 45.73508206 80.07149364 43.95703125 76.9453125 C43.43521019 76.026931 43.43521019 76.026931 42.90284729 75.08999634 C40.28866975 70.49362048 37.63374487 65.92360915 34.9375 61.375 C30.07108667 53.16006062 25.31041222 44.88507392 20.54907227 36.60888672 C16.49789279 29.5739044 12.41869511 22.55721648 8.23242188 15.6015625 C6.1220999 12.05774254 4.20070003 8.45862321 2.36572266 4.76367188 C1.92104645 3.86966675 1.47637024 2.97566162 1.01821899 2.05456543 C0.68220673 1.37655884 0.34619446 0.69855225 0 0 Z " fill="#304B31" transform="translate(62,0)"/>
<path d="M0 0 C3.90584821 1.3019494 4.26557027 2.71200279 6.2578125 6.2578125 C7.19089233 7.89907104 7.19089233 7.89907104 8.14282227 9.57348633 C8.80398743 10.75707895 9.46470549 11.94092144 10.125 13.125 C11.46678979 15.50835843 12.81328212 17.88904328 14.16015625 20.26953125 C14.49025192 20.85508286 14.8203476 21.44063446 15.16044617 22.04393005 C17.04847411 25.37836208 18.99893248 28.65567296 21.05859375 31.88671875 C21.48962402 32.56653809 21.9206543 33.24635742 22.36474609 33.94677734 C23.48214567 35.68733332 24.61736143 37.41641586 25.75390625 39.14453125 C27 42 27 42 26.27319336 44.32983398 C24.92253068 47.16247018 23.45060844 49.86386465 21.875 52.578125 C21.25536377 53.64893311 20.63572754 54.71974121 19.99731445 55.82299805 C19.33820068 56.95390869 18.67908691 58.08481934 18 59.25 C17.32031589 60.42149121 16.64087404 61.59312301 15.96166992 62.76489258 C11.05722982 71.21800073 6.11950084 79.65178167 1.1340332 88.05737305 C-0.59882141 91.0257959 -2.29467301 94.01567777 -4 97 C-21.16 97 -38.32 97 -56 97 C-52.1824295 89.364859 -48.38364357 82.02708116 -44 74.75 C-42.85221259 72.82590962 -41.70510083 70.90141606 -40.55859375 68.9765625 C-39.97190918 67.99333008 -39.38522461 67.01009766 -38.78076172 65.99707031 C-35.84540077 61.05677815 -32.95373579 56.09120382 -30.0625 51.125 C-29.48540283 50.1347583 -28.90830566 49.1445166 -28.3137207 48.12426758 C-25.92941558 44.03239625 -23.5466873 39.9396097 -21.16503906 35.84619141 C-14.18565185 23.85117786 -7.19047303 11.86998722 0 0 Z " fill="#304B31" transform="translate(56,10)"/>
<path d="M0 0 C0.495 1.98 0.495 1.98 1 4 C-0.20398438 4.26554687 -1.40796875 4.53109375 -2.6484375 4.8046875 C-4.2240451 5.16107493 -5.79956127 5.51786678 -7.375 5.875 C-8.1690625 6.04902344 -8.963125 6.22304688 -9.78125 6.40234375 C-10.54179687 6.57636719 -11.30234375 6.75039063 -12.0859375 6.9296875 C-12.7876709 7.08679199 -13.4894043 7.24389648 -14.21240234 7.40576172 C-16.22533011 7.92669906 -16.22533011 7.92669906 -18 10 C-17.113125 10.37125 -16.22625 10.7425 -15.3125 11.125 C-11.44251325 13.31555854 -9.43273008 15.27935399 -7 19 C-6.47783964 22.72039259 -6.67917824 25.10169907 -7.9375 28.625 C-12.78521657 34.20721908 -19.82329962 36.83006849 -27 38 C-32.28976314 38.37093537 -37.5877347 38.41314881 -42.88867188 38.47851562 C-49.01160897 38.62983595 -53.57573312 39.08163547 -59 42 C-59 42.99 -59 43.98 -59 45 C-49.13111664 48.65665365 -38.27000796 48.06965911 -27.86181641 48.29003906 C5.17831184 49.02888784 5.17831184 49.02888784 14 57 C16 60 16 60 16 63.375 C14.99795202 67.00742394 14.09938305 68.66312662 11.05078125 70.875 C-8.79608173 81.76242197 -38.26799613 80.99749415 -59.77734375 76.1484375 C-65.46413064 74.4192044 -70.03688455 72.4986716 -74 68 C-75.1875 65 -75.1875 65 -75 62 C-71.38416999 56.63859689 -66.07467466 55.21493493 -60 54 C-58.68 54 -57.36 54 -56 54 C-56 53.34 -56 52.68 -56 52 C-56.67546875 51.90203125 -57.3509375 51.8040625 -58.046875 51.703125 C-65.30205427 50.48693888 -65.30205427 50.48693888 -68.6875 48.125 C-70 46 -70 46 -70.125 44 C-68.4271227 40.98155146 -65.9286663 39.75719978 -63 38 C-62.01 37.34 -61.02 36.68 -60 36 C-60.9075 35.46375 -61.815 34.9275 -62.75 34.375 C-66.15055888 32.07295895 -68.16832507 29.73661685 -70 26 C-70.08717047 21.11845387 -68.93609801 17.94775428 -65.56640625 14.34765625 C-58.36987037 8.15612289 -49.10211252 6.80921019 -39.89453125 7.12890625 C-28.87500398 7.50021121 -21.48706248 7.26760837 -11.94140625 1.55859375 C-7.68907431 -0.69463393 -4.70414199 -0.56774127 0 0 Z M-58.72265625 17.95703125 C-60.53037703 20.84827885 -60.47883053 22.6481863 -60 26 C-57.59931988 30.30121855 -54.85511709 31.755499 -50.28271484 33.38256836 C-46.38283429 34.43741306 -42.58250507 34.4871048 -38.5625 34.4375 C-37.7271875 34.43210205 -36.891875 34.4267041 -36.03125 34.42114258 C-29.17196726 34.25140485 -23.571832 33.18704447 -18.33203125 28.51171875 C-16.45763854 26.38447541 -16.20070908 24.80992709 -16 22 C-16.55902675 19.13498789 -17.21087002 17.5797294 -19.58984375 15.83203125 C-29.72531539 9.89645906 -50.20157372 8.27661777 -58.72265625 17.95703125 Z M-65 62 C-65.39433024 64.98212014 -65.39433024 64.98212014 -64 68 C-51.23843295 77.53273683 -26.82766484 75.32183209 -12.0390625 73.46484375 C-5.19271178 72.38424124 0.89586528 71.10413472 6 66 C6.50135199 63.62778044 6.50135199 63.62778044 6 61 C0.89975667 55.21972423 -7.70560352 54.08166163 -15 53 C-41.71221308 51.07663054 -41.71221308 51.07663054 -65 62 Z " fill="#304B31" transform="translate(251,27)"/>
<path d="M0 0 C3.55015319 2.962047 5.66663731 5.51502075 6.6875 10.0625 C5.62027758 14.62245035 2.92092554 17.67178852 -0.86889648 20.29223633 C-3.06691273 21.56485381 -5.29311986 22.7344922 -7.5625 23.875 C-8.38298828 24.29628174 -9.20347656 24.71756348 -10.04882812 25.15161133 C-16.25165803 28.27122156 -22.57139988 31.06759105 -29 33.6875 C-29.85408447 34.0386084 -30.70816895 34.3897168 -31.58813477 34.75146484 C-32.38405029 35.06422363 -33.17996582 35.37698242 -34 35.69921875 C-34.70125 35.97596436 -35.4025 36.25270996 -36.125 36.5378418 C-38 37 -38 37 -41 36 C-39.948125 35.23816406 -39.948125 35.23816406 -38.875 34.4609375 C-33.21416422 30.35375502 -27.57781418 26.21932075 -22 22 C-27.9283536 25.13644359 -33.70776785 28.41052288 -39.375 32 C-47.36760457 36.96322644 -55.55613458 41.77553459 -65 43 C-63.51496003 37.83633162 -60.30778675 34.88796625 -56.5625 31.25 C-55.9422998 30.63817871 -55.32209961 30.02635742 -54.68310547 29.39599609 C-49.39372859 24.24214001 -43.84947196 19.5124498 -38 15 C-45.66796096 18.85334402 -52.24527484 23.75394442 -59 29 C-59.495 27.515 -59.495 27.515 -60 26 C-53.13195922 14.45084722 -42.2176769 0.81451205 -29.25390625 -3.59375 C-19.81691373 -5.29469839 -8.2164936 -5.39850543 0 0 Z " fill="#304B31" transform="translate(208,5)"/>
<path d="M0 0 C4.42119711 4.22469946 7.12887219 8.29480268 8.8125 14.1875 C8.8125 20.39385985 6.94691676 24.80105526 2.75 29.375 C-7.91072807 39.10485369 -22.70043558 41.33666947 -36.70703125 40.97265625 C-47.84590835 40.06004342 -58.47540314 37.54885903 -67.125 30.1875 C-71.14536977 25.31432452 -73.33150899 21.15590372 -73.1875 14.6875 C-72.26372175 8.42768685 -68.74632419 4.47480769 -63.9921875 0.515625 C-46.39517214 -10.95429587 -17.86781523 -11.24868882 0 0 Z M-59.75 7 C-62.55273047 10.68906404 -63.69251676 14.05374968 -63.1875 18.6875 C-61.61607406 24.44217017 -58.31852132 28.15089611 -53.42578125 31.43359375 C-43.63106436 36.92068646 -31.46775819 37.24927156 -20.63671875 34.92578125 C-12.86183921 32.47616167 -6.92995809 29.53771723 -2.1875 22.6875 C-0.64716962 18.06650885 -0.6489445 14.23980704 -2.25 9.625 C-7.49904379 1.66677232 -14.14455289 -0.89819323 -23.125 -3 C-36.07705264 -4.32163802 -50.26352801 -2.91664614 -59.75 7 Z " fill="#304B31" transform="translate(347.1875,40.3125)"/>
<path d="M0 0 C1.29550781 -0.04350586 1.29550781 -0.04350586 2.6171875 -0.08789062 C9.00381662 -0.15195403 9.00381662 -0.15195403 12.1640625 2.2109375 C14.625 5.75100267 14.625 5.75100267 14.625 8.3125 C12.83982174 10.95948845 11.50478754 12.87260623 8.625 14.3125 C7.08476004 14.38200541 5.54165012 14.39702357 4 14.375 C2.77410156 14.36146484 2.77410156 14.36146484 1.5234375 14.34765625 C0.58371094 14.33025391 0.58371094 14.33025391 -0.375 14.3125 C-0.375 15.6325 -0.375 16.9525 -0.375 18.3125 C0.615 18.6425 1.605 18.9725 2.625 19.3125 C1.625 20.3125 1.625 20.3125 -1.09765625 20.41015625 C-2.19980469 20.39855469 -3.30195312 20.38695312 -4.4375 20.375 C-6.09458984 20.36146484 -6.09458984 20.36146484 -7.78515625 20.34765625 C-8.63980469 20.33605469 -9.49445312 20.32445312 -10.375 20.3125 C-10.705 19.6525 -11.035 18.9925 -11.375 18.3125 C-10.385 18.3125 -9.395 18.3125 -8.375 18.3125 C-8.51595064 16.6870692 -8.66292087 15.06215949 -8.8125 13.4375 C-8.93431641 12.08011719 -8.93431641 12.08011719 -9.05859375 10.6953125 C-9.24489285 8.30139139 -9.24489285 8.30139139 -10.375 6.3125 C-9.715 6.3125 -9.055 6.3125 -8.375 6.3125 C-8.375 5.3225 -8.375 4.3325 -8.375 3.3125 C-9.365 3.3125 -10.355 3.3125 -11.375 3.3125 C-11.375 2.6525 -11.375 1.9925 -11.375 1.3125 C-7.85995709 -0.44502146 -3.87266748 0.04296599 0 0 Z M-0.375 3.3125 C-0.375 5.9525 -0.375 8.5925 -0.375 11.3125 C2.67413228 12.32361093 2.67413228 12.32361093 5.625 11.3125 C5.625 8.6725 5.625 6.0325 5.625 3.3125 C2.57586772 2.30138907 2.57586772 2.30138907 -0.375 3.3125 Z " fill="#304B31" transform="translate(52.375,119.6875)"/>
<path d="M0 0 C0.1958009 1.91583647 0.38132214 3.83272539 0.5625 5.75 C0.66691406 6.81734375 0.77132812 7.8846875 0.87890625 8.984375 C0.98560074 11.64141204 0.81930395 13.49960572 0 16 C0.66 16 1.32 16 2 16 C2 16.66 2 17.32 2 18 C-1.06398451 18.13530844 -4.12197126 18.2342407 -7.1875 18.3125 C-8.05181641 18.35439453 -8.91613281 18.39628906 -9.80664062 18.43945312 C-14.32801664 18.52606952 -16.31849074 18.53184448 -19.98828125 15.66796875 C-21.38184808 13.81980148 -22.71604568 11.92593148 -24 10 C-23.34 10 -22.68 10 -22 10 C-21.731875 9.195625 -21.46375 8.39125 -21.1875 7.5625 C-20.5996875 6.2940625 -20.5996875 6.2940625 -20 5 C-17.24921116 4.08307039 -15.64051087 3.89113917 -12.8125 3.9375 C-10.9253125 3.9684375 -10.9253125 3.9684375 -9 4 C-8.67 3.34 -8.34 2.68 -8 2 C-8.99 2 -9.98 2 -11 2 C-11 1.34 -11 0.68 -11 0 C-6.93720525 -0.85035239 -4.02659396 -0.92604802 0 0 Z M-13 6 C-14.20561184 6.98267859 -14.20561184 6.98267859 -14.09765625 8.84765625 C-14.08605469 9.57855469 -14.07445312 10.30945313 -14.0625 11.0625 C-14.041875 12.361875 -14.02125 13.66125 -14 15 C-12.34385343 15.38218767 -10.67542976 15.71395102 -9 16 C-7.79438816 15.01732141 -7.79438816 15.01732141 -7.90234375 13.15234375 C-7.91394531 12.42144531 -7.92554688 11.69054687 -7.9375 10.9375 C-7.958125 9.638125 -7.97875 8.33875 -8 7 C-9.65614657 6.61781233 -11.32457024 6.28604898 -13 6 Z " fill="#304B31" transform="translate(157,116)"/>
<path d="M0 0 C0.84175781 -0.00128906 1.68351562 -0.00257812 2.55078125 -0.00390625 C3.87142578 0.00189453 3.87142578 0.00189453 5.21875 0.0078125 C6.09917969 0.00394531 6.97960937 0.00007813 7.88671875 -0.00390625 C9.14935547 -0.00197266 9.14935547 -0.00197266 10.4375 0 C11.21029297 0.00112793 11.98308594 0.00225586 12.77929688 0.00341797 C14.71875 0.1328125 14.71875 0.1328125 16.71875 1.1328125 C17.05208333 2.79947917 17.38541667 4.46614583 17.71875 6.1328125 C18.37875 6.4628125 19.03875 6.7928125 19.71875 7.1328125 C19.05875 8.7828125 18.39875 10.4328125 17.71875 12.1328125 C18.37875 12.1328125 19.03875 12.1328125 19.71875 12.1328125 C19.71875 12.7928125 19.71875 13.4528125 19.71875 14.1328125 C15.75875 14.1328125 11.79875 14.1328125 7.71875 14.1328125 C7.71875 13.4728125 7.71875 12.8128125 7.71875 12.1328125 C8.37875 12.1328125 9.03875 12.1328125 9.71875 12.1328125 C9.71875 9.1628125 9.71875 6.1928125 9.71875 3.1328125 C8.39875 3.4628125 7.07875 3.7928125 5.71875 4.1328125 C5.38875 6.7728125 5.05875 9.4128125 4.71875 12.1328125 C5.37875 12.1328125 6.03875 12.1328125 6.71875 12.1328125 C6.71875 12.7928125 6.71875 13.4528125 6.71875 14.1328125 C2.42875 14.1328125 -1.86125 14.1328125 -6.28125 14.1328125 C-6.28125 13.4728125 -6.28125 12.8128125 -6.28125 12.1328125 C-5.29125 12.1328125 -4.30125 12.1328125 -3.28125 12.1328125 C-3.94125 10.1528125 -4.60125 8.1728125 -5.28125 6.1328125 C-4.62125 6.1328125 -3.96125 6.1328125 -3.28125 6.1328125 C-3.28125 5.1428125 -3.28125 4.1528125 -3.28125 3.1328125 C-4.27125 3.1328125 -5.26125 3.1328125 -6.28125 3.1328125 C-6.28125 2.4728125 -6.28125 1.8128125 -6.28125 1.1328125 C-3.95781444 -0.02890528 -2.58491684 0.00377281 0 0 Z " fill="#304B31" transform="translate(337.28125,119.8671875)"/>
<path d="M0 0 C1.38541992 0.00483398 1.38541992 0.00483398 2.79882812 0.00976562 C4.17844727 -0.0144043 4.17844727 -0.0144043 5.5859375 -0.0390625 C6.91141602 -0.0400293 6.91141602 -0.0400293 8.26367188 -0.04101562 C9.07312256 -0.04399658 9.88257324 -0.04697754 10.71655273 -0.05004883 C13.37320715 0.4111234 14.230919 1.21275198 15.86132812 3.32226562 C16.89344651 6.67665038 16.97047555 8.99482336 15.86132812 12.32226562 C16.52132812 12.32226562 17.18132812 12.32226562 17.86132812 12.32226562 C17.86132812 12.98226562 17.86132812 13.64226562 17.86132812 14.32226562 C13.90132812 14.32226562 9.94132812 14.32226562 5.86132812 14.32226562 C5.86132812 13.66226563 5.86132812 13.00226563 5.86132812 12.32226562 C6.52132812 12.32226562 7.18132812 12.32226562 7.86132812 12.32226562 C7.86132812 9.35226563 7.86132812 6.38226563 7.86132812 3.32226562 C6.21132812 3.65226562 4.56132813 3.98226562 2.86132812 4.32226562 C2.53132813 6.96226563 2.20132813 9.60226563 1.86132812 12.32226562 C2.52132812 12.32226562 3.18132812 12.32226562 3.86132812 12.32226562 C3.86132812 12.98226562 3.86132812 13.64226562 3.86132812 14.32226562 C-0.09867188 14.32226562 -4.05867188 14.32226562 -8.13867188 14.32226562 C-8.13867188 13.66226563 -8.13867188 13.00226563 -8.13867188 12.32226562 C-7.47867188 12.32226562 -6.81867188 12.32226562 -6.13867188 12.32226562 C-6.32429688 11.39414063 -6.50992188 10.46601563 -6.70117188 9.50976562 C-7.13867188 6.32226562 -7.13867188 6.32226562 -6.13867188 3.32226562 C-7.12867187 2.99226563 -8.11867188 2.66226563 -9.13867188 2.32226562 C-6.26271631 -0.55368994 -3.93318632 0.0316034 0 0 Z " fill="#304B31" transform="translate(110.138671875,119.677734375)"/>
<path d="M0 0 C1.04929687 -0.02578125 2.09859375 -0.0515625 3.1796875 -0.078125 C6.46083804 0.28741432 7.76989087 0.988654 10.125 3.25 C11.5134002 6.45400046 10.95589395 8.9264242 10.125 12.25 C10.785 12.25 11.445 12.25 12.125 12.25 C12.125 12.91 12.125 13.57 12.125 14.25 C8.87517 14.33728882 5.6256425 14.39048658 2.375 14.4375 C0.99441406 14.47520508 0.99441406 14.47520508 -0.4140625 14.51367188 C-1.30351562 14.52333984 -2.19296875 14.53300781 -3.109375 14.54296875 C-3.92631836 14.5586792 -4.74326172 14.57438965 -5.58496094 14.59057617 C-8.38740627 14.17379459 -9.76347021 13.08804852 -11.875 11.25 C-10.125 7.375 -10.125 7.375 -7.875 6.25 C-8.535 5.92 -9.195 5.59 -9.875 5.25 C-7.54212857 0.08435613 -5.51919031 0.08096612 0 0 Z M-2.875 2.25 C-2.875 3.24 -2.875 4.23 -2.875 5.25 C-3.865 5.745 -3.865 5.745 -4.875 6.25 C-1.41 5.755 -1.41 5.755 2.125 5.25 C1.795 4.26 1.465 3.27 1.125 2.25 C-0.195 2.25 -1.515 2.25 -2.875 2.25 Z M-1.875 8.25 C-1.545 9.57 -1.215 10.89 -0.875 12.25 C0.115 11.92 1.105 11.59 2.125 11.25 C2.125 10.26 2.125 9.27 2.125 8.25 C0.805 8.25 -0.515 8.25 -1.875 8.25 Z " fill="#304B31" transform="translate(286.875,119.75)"/>
<path d="M0 0 C2.31696033 2.0997453 3.11593727 3.83883445 4 6.8125 C0.375 11.6875 0.375 11.6875 -3 12.8125 C-8.12776758 13.29670096 -12.51585923 13.66058044 -17.0625 11.0625 C-18.81815112 9.02367935 -20.01956017 7.30816503 -21 4.8125 C-15.03909868 -1.47061221 -8.30134249 -3.28594807 0 0 Z M-10 0.8125 C-11.20561184 1.79517859 -11.20561184 1.79517859 -11.09765625 3.66015625 C-11.08605469 4.39105469 -11.07445312 5.12195313 -11.0625 5.875 C-11.041875 7.174375 -11.02125 8.47375 -11 9.8125 C-9.10820797 10.4939823 -9.10820797 10.4939823 -7 10.8125 C-4.68436913 8.92749729 -4.68436913 8.92749729 -4.75 5.8125 C-4.68436913 2.69750271 -4.68436913 2.69750271 -7 0.8125 C-7.99 0.8125 -8.98 0.8125 -10 0.8125 Z " fill="#304B31" transform="translate(222,121.1875)"/>
<path d="M0 0 C3.0625 1.25 3.0625 1.25 5 3 C5.875 5.125 5.875 5.125 6 7 C4.18701995 8.81298005 1.38818302 8.67555005 -1.0625 9.0625 C-2.16722656 9.23910156 -3.27195312 9.41570312 -4.41015625 9.59765625 C-5.26480469 9.73042969 -6.11945313 9.86320313 -7 10 C-5.96150619 11.25437662 -5.96150619 11.25437662 -3.6875 11.1875 C-0.90174404 10.99314493 0.56344063 10.26028933 3 9 C3.66 9.33 4.32 9.66 5 10 C4 13 4 13 2 14 C0.06640414 14.14851844 -1.87342097 14.22130833 -3.8125 14.25 C-4.85019531 14.27578125 -5.88789063 14.3015625 -6.95703125 14.328125 C-10.41434825 13.9553206 -12.23739236 13.07932924 -15 11 C-16.3125 8.3125 -16.3125 8.3125 -17 6 C-11.25627434 0.10512366 -8.12343661 -0.71527115 0 0 Z M-7 2 C-7.33 3.65 -7.66 5.3 -8 7 C-6.35 6.67 -4.7 6.34 -3 6 C-3 4.68 -3 3.36 -3 2 C-4.32 2 -5.64 2 -7 2 Z " fill="#304B31" transform="translate(264,120)"/>
<path d="M0 0 C2 1.75 2 1.75 2.875 3.875 C2.91625 4.49375 2.9575 5.1125 3 5.75 C1.18884044 7.56115956 -1.61278227 7.13199448 -4.0625 7.3125 C-5.16722656 7.39628906 -6.27195312 7.48007813 -7.41015625 7.56640625 C-8.26480469 7.62699219 -9.11945313 7.68757812 -10 7.75 C-10 8.41 -10 9.07 -10 9.75 C-4.2025577 9.99428343 -4.2025577 9.99428343 1 7.75 C1 9.07 1 10.39 1 11.75 C-3.17562276 13.83781138 -8.45183942 13.19327867 -13 12.75 C-16.66963411 10.6950049 -18.46641111 8.65368082 -20 4.75 C-19.34 4.75 -18.68 4.75 -18 4.75 C-17.7525 4.13125 -17.505 3.5125 -17.25 2.875 C-13.76929248 -3.04220279 -5.58405574 -2.32668989 0 0 Z M-9 0.75 C-9.33 2.4 -9.66 4.05 -10 5.75 C-8.68 5.42 -7.36 5.09 -6 4.75 C-6 3.43 -6 2.11 -6 0.75 C-6.99 0.75 -7.98 0.75 -9 0.75 Z " fill="#304B31" transform="translate(93,121.25)"/>
<path d="M0 0 C0.33 1.32 0.66 2.64 1 4 C0.01 4.66 -0.98 5.32 -2 6 C-2.66 5.34 -3.32 4.68 -4 4 C-6.57061311 3.35232207 -6.57061311 3.35232207 -9 3 C-9 3.66 -9 4.32 -9 5 C-7.6696875 5.12375 -7.6696875 5.12375 -6.3125 5.25 C-2.58744536 6.0934086 -0.79071162 7.45552764 2 10 C0.25 13.875 0.25 13.875 -2 15 C-4.34942826 15.25630126 -6.70510258 15.45712836 -9.0625 15.625 C-10.96708984 15.76808594 -10.96708984 15.76808594 -12.91015625 15.9140625 C-14.43962891 15.95660156 -14.43962891 15.95660156 -16 16 C-17 15 -17 15 -17.1875 12.5625 C-17 10 -17 10 -15 8 C-15.66 6.68 -16.32 5.36 -17 4 C-13.82072551 1.18988298 -11.5796327 0.56749794 -7.375 0.3125 C-6.41335937 0.24675781 -5.45171875 0.18101563 -4.4609375 0.11328125 C-2.97505237 0.04488336 -1.48745853 0 0 0 Z M-13 10 C-12.67 10.99 -12.34 11.98 -12 13 C-10.02 13 -8.04 13 -6 13 C-6 12.34 -6 11.68 -6 11 C-8.31 10.67 -10.62 10.34 -13 10 Z " fill="#304B31" transform="translate(34,119)"/>
<path d="M0 0 C0.73089844 0.00410889 1.46179688 0.00821777 2.21484375 0.01245117 C3.01148438 0.01438477 3.808125 0.01631836 4.62890625 0.01831055 C5.87800781 0.03667969 5.87800781 0.03667969 7.15234375 0.05541992 C7.98507812 0.05606445 8.8178125 0.05670898 9.67578125 0.05737305 C15.8714786 0.10248735 15.8714786 0.10248735 18.15234375 1.24291992 C18.77734375 3.30541992 18.77734375 3.30541992 19.15234375 5.24291992 C16.40234375 6.43041992 16.40234375 6.43041992 13.15234375 7.24291992 C10.77734375 5.86791992 10.77734375 5.86791992 9.15234375 4.24291992 C7.18411489 6.21114878 7.48985994 9.59100701 7.15234375 12.24291992 C8.14234375 12.24291992 9.13234375 12.24291992 10.15234375 12.24291992 C10.15234375 12.90291992 10.15234375 13.56291992 10.15234375 14.24291992 C5.86234375 14.24291992 1.57234375 14.24291992 -2.84765625 14.24291992 C-2.84765625 13.58291992 -2.84765625 12.92291992 -2.84765625 12.24291992 C-2.18765625 11.91291992 -1.52765625 11.58291992 -0.84765625 11.24291992 C-0.51765625 10.25291992 -0.18765625 9.26291992 0.15234375 8.24291992 C-0.50765625 8.24291992 -1.16765625 8.24291992 -1.84765625 8.24291992 C-1.51765625 6.92291992 -1.18765625 5.60291992 -0.84765625 4.24291992 C-1.83765625 3.58291992 -2.82765625 2.92291992 -3.84765625 2.24291992 C-1.84765625 0.24291992 -1.84765625 0.24291992 0 0 Z " fill="#304B31" transform="translate(307.84765625,119.757080078125)"/>
<path d="M0 0 C0 1.32 0 2.64 0 4 C1.98 4 3.96 4 6 4 C5.67 4.99 5.34 5.98 5 7 C3.35 7 1.7 7 0 7 C0 9.97 0 12.94 0 16 C0.763125 15.484375 1.52625 14.96875 2.3125 14.4375 C3.199375 13.963125 4.08625 13.48875 5 13 C5.99 13.33 6.98 13.66 8 14 C7 17 7 17 5 18 C0.95346115 18.40621626 -2.73989578 18.61389693 -6.4375 16.8125 C-8.27808762 14.67741836 -9.1342843 12.66929007 -10 10 C-9.34 10 -8.68 10 -8 10 C-8 9.01 -8 8.02 -8 7 C-8.99 7 -9.98 7 -11 7 C-10.67 6.01 -10.34 5.02 -10 4 C-9.01 4 -8.02 4 -7 4 C-6.67 3.01 -6.34 2.02 -6 1 C-3 0 -3 0 0 0 Z " fill="#304B31" transform="translate(189,116)"/>
</svg>
